<?xml version="1.0" encoding="UTF-8"?>
<svg id="Layer_1" xmlns="http://www.w3.org/2000/svg" viewBox="0 0 128 128">
  <defs>
    <style>
      .cls-1 {
        fill: #639;
      }

      .cls-2 {
        fill: #fff;
      }

      .cls-3 {
        fill: #9fcc3b;
      }
    </style>
  </defs>
  <path class="cls-3" d="M79.8,5.02c-21.02-1.54-42.25,7.06-57.54,21.46h.84c.17,0,.29.06.35.17l6.96,10.26,7.01-10.26c.07-.12.19-.17.36-.17h9.24c.2,0,.34.08.41.24.03.12-.03.22-.2.31-.71.28-1.23.62-1.55,1.02-.32.4-.48,1.11-.48,2.12v15.44c0,.76.03,1.38.1,1.85.07.47.18.86.33,1.16.15.3.36.54.63.73.27.18.61.36,1.02.52.17.09.24.2.2.31-.07.16-.22.24-.46.24h-11.07c-.24,0-.39-.08-.46-.24-.07-.16.02-.26.25-.31.34-.14.64-.28.89-.41.25-.14.46-.32.61-.54.15-.22.27-.48.36-.79.08-.31.13-.7.13-1.16v-10.57l-6.85,10.29c-.07.12-.19.17-.35.17h-.15c-.17,0-.29-.06-.36-.17l-6.85-10.29v10.57c0,.46.04.85.13,1.16.08.31.2.58.36.79.15.22.35.4.61.54.25.14.55.26.89.38.17.07.25.16.25.28,0,.21-.15.31-.46.31h-11.07c-.24,0-.39-.08-.46-.24-.03-.12.03-.22.2-.31.41-.16.74-.33,1.02-.52.27-.18.48-.43.64-.73.15-.3.26-.68.33-1.16.07-.47.1-1.09.1-1.85v-12.14c-6.35,7.65-11.14,16.47-13.69,25.99-8.73,32.58,11.95,61.02,46.2,63.53,21.02,1.54,42.25-7.06,57.54-21.46h-23.54c-.32,0-.53-.16-.62-.48-.05-.23.05-.44.28-.62.55-.32,1.01-.67,1.38-1.03.37-.37.65-.85.86-1.45.21-.6.35-1.37.45-2.31.09-.94.14-2.17.14-3.69v-28.62c0-1.52-.05-2.75-.14-3.69-.09-.94-.24-1.71-.45-2.31-.21-.6-.49-1.08-.86-1.45-.37-.37-.83-.71-1.38-1.04-.23-.18-.32-.39-.28-.62.09-.32.3-.48.62-.48l25.61.07c.64,0,1.1-.02,1.38-.07.28-.05.62-.16,1.03-.34.23-.09.41-.07.55.07.18.14.27.3.27.48v10.74c0,.28-.11.46-.34.55-.28.09-.51.05-.69-.14-.87-.83-1.7-1.45-2.48-1.86-.78-.41-1.81-.62-3.1-.62h-9.64v10.47h9.78c.27,0,.52-.03.72-.1.21-.07.49-.17.86-.31.23-.09.41-.07.55.07.18.09.28.25.28.48v9.71c0,.32-.14.51-.41.55-.09.09-.2.11-.31.07-.12-.05-.22-.11-.31-.21-.46-.64-1.03-1.1-1.72-1.38-.69-.27-1.84-.41-3.44-.41h-5.99v11.15l4.34-.07c1.52,0,2.89-.07,4.13-.21,1.24-.14,2.39-.35,3.44-.65,1.06-.3,2.05-.69,3-1.17.94-.48,1.87-1.09,2.79-1.83.23-.14.46-.14.69,0,.27.18.34.41.21.69l-2.32,6.54c6.97-7.99,12.22-17.33,14.94-27.47,8.73-32.58-11.95-61.02-46.2-63.53ZM46.12,89.41l-3.24,11.57c-.09.28-.28.41-.55.41l-27.61.14c-.32,0-.53-.16-.62-.48-.05-.23.05-.44.28-.62.55-.32,1.01-.67,1.38-1.03.37-.37.65-.85.86-1.45.21-.6.35-1.37.45-2.31.09-.94.14-2.17.14-3.68v-30.78c0-2.02-.22-3.43-.65-4.23-.44-.8-1.14-1.48-2.1-2.03-.28-.14-.37-.34-.28-.62.09-.32.28-.48.55-.48h15.08c.32,0,.53.16.62.48.09.32-.02.53-.34.62-.55.32-1,.65-1.34,1s-.62.82-.83,1.41c-.21.6-.36,1.38-.45,2.34-.09.96-.14,2.2-.14,3.72v29.33l4.54-.07c1.52,0,2.89-.07,4.13-.21,1.24-.14,2.39-.35,3.44-.65,1.06-.3,2.05-.69,3-1.17.94-.48,1.87-1.09,2.79-1.83.23-.14.46-.14.69,0,.23.14.3.34.21.62ZM49.25,49.86c.41-.16.74-.33,1.02-.52.27-.18.48-.43.63-.73.15-.3.26-.68.33-1.16.07-.47.1-1.09.1-1.85v-15.44c0-1.01-.16-1.72-.48-2.12-.32-.4-.84-.74-1.55-1.02-.2-.07-.27-.17-.2-.31.07-.16.2-.24.41-.24h11.12c.24,0,.39.08.46.24.07.16-.02.27-.25.31-.41.16-.74.33-.99.5-.25.17-.46.41-.61.71-.15.3-.26.69-.33,1.17-.07.48-.1,1.11-.1,1.87v15.68c0,.46.04.85.13,1.16s.2.58.36.79c.15.22.36.4.61.54.25.14.55.28.89.41.24.05.32.15.25.31-.07.16-.22.24-.46.24h-11.07c-.24,0-.39-.08-.46-.24-.03-.12.03-.22.2-.31ZM79.17,89.48l-4.13,11.64c-.09.28-.28.41-.55.41h-26.51c-.32,0-.53-.16-.62-.48-.05-.23.05-.44.28-.62.55-.32,1.01-.67,1.38-1.03.37-.37.65-.85.86-1.45.21-.6.35-1.37.45-2.31.09-.94.14-2.17.14-3.69v-28.62c0-1.52-.05-2.75-.14-3.69-.09-.94-.24-1.71-.45-2.31-.21-.6-.49-1.08-.86-1.45-.37-.37-.83-.71-1.38-1.04-.23-.18-.32-.39-.28-.62.09-.32.3-.48.62-.48l25.61.07c.64,0,1.1-.02,1.38-.07.28-.05.62-.16,1.03-.34.23-.09.41-.07.55.07.18.14.27.3.27.48v10.74c0,.28-.11.46-.34.55-.28.09-.51.05-.69-.14-.87-.83-1.7-1.45-2.48-1.86-.78-.41-1.81-.62-3.1-.62h-9.64v10.47h9.78c.27,0,.52-.03.72-.1.21-.07.49-.17.86-.31.23-.09.41-.07.55.07.18.09.28.25.28.48v9.71c0,.32-.14.51-.41.55-.09.09-.2.11-.31.07-.11-.05-.22-.11-.31-.21-.46-.64-1.03-1.1-1.72-1.38-.69-.27-1.84-.41-3.44-.41h-5.99v11.15l4.34-.07c1.52,0,2.89-.07,4.13-.21,1.24-.14,2.39-.35,3.44-.65,1.06-.3,2.05-.69,3-1.17.94-.48,1.87-1.09,2.79-1.83.23-.14.46-.14.69,0,.28.18.34.41.21.69ZM96.47,50.41h-11.07c-.24,0-.39-.08-.46-.24-.07-.16.02-.26.25-.31.34-.14.64-.28.89-.41.25-.14.46-.32.61-.54.15-.22.27-.48.36-.79.08-.31.13-.7.13-1.16v-10.57l-6.85,10.29c-.07.12-.19.17-.35.17h-.15c-.17,0-.29-.06-.36-.17l-6.85-10.29v10.57c0,.46.04.85.13,1.16.08.31.2.58.36.79.15.22.35.4.61.54.25.14.55.26.89.38.17.07.25.16.25.28,0,.21-.15.31-.46.31h-11.07c-.24,0-.39-.08-.46-.24-.03-.12.03-.22.2-.31.41-.16.74-.33,1.02-.52.27-.18.48-.43.64-.73.15-.3.26-.68.33-1.16.07-.47.1-1.09.1-1.85v-15.44c0-1.01-.16-1.72-.48-2.12-.32-.4-.84-.74-1.55-1.02-.2-.07-.27-.17-.2-.31.07-.16.2-.24.41-.24h9.24c.17,0,.29.06.35.17l6.96,10.26,7.01-10.26c.07-.12.19-.17.36-.17h9.24c.2,0,.34.08.41.24.03.12-.03.22-.2.31-.71.28-1.23.62-1.55,1.02-.32.4-.48,1.11-.48,2.12v15.44c0,.76.03,1.38.1,1.85.07.47.18.86.33,1.16.15.3.36.54.63.73.27.18.61.36,1.02.52.17.09.24.2.2.31-.07.16-.22.24-.46.24ZM110.28,27.03c-.41.16-.74.33-.99.5-.25.17-.46.41-.61.71-.15.3-.26.69-.33,1.17-.07.48-.1,1.11-.1,1.87v15.68c0,.46.04.85.13,1.16.08.31.2.58.36.79.15.22.36.4.61.54.25.14.55.28.89.41.24.05.32.15.25.31-.07.16-.22.24-.46.24h-11.07c-.24,0-.39-.08-.46-.24-.03-.12.03-.22.2-.31.41-.16.74-.33,1.02-.52.27-.18.48-.43.63-.73.15-.3.26-.68.33-1.16.07-.47.1-1.09.1-1.85v-15.44c0-1.01-.16-1.72-.48-2.12-.32-.4-.84-.74-1.55-1.02-.2-.07-.27-.17-.2-.31.07-.16.2-.24.41-.24h11.12c.24,0,.39.08.46.24.07.16-.02.27-.25.31Z"/>
  <g>
    <g>
      <path class="cls-2" d="M15.59,47.46c-.07.47-.18.86-.33,1.16-.15.3-.36.54-.64.73-.27.18-.61.36-1.02.52-.17.09-.24.2-.2.31.07.16.22.24.46.24h11.07c.3,0,.46-.1.46-.31,0-.11-.08-.21-.25-.28-.34-.11-.63-.24-.89-.38-.25-.14-.46-.32-.61-.54-.15-.22-.27-.48-.36-.79-.09-.31-.13-.7-.13-1.16v-10.57l6.85,10.29c.07.12.19.17.36.17h.15c.17,0,.29-.06.35-.17l6.85-10.29v10.57c0,.46-.04.85-.13,1.16-.09.31-.2.58-.36.79-.15.22-.36.4-.61.54-.25.14-.55.28-.89.41-.24.05-.32.15-.25.31.07.16.22.24.46.24h11.07c.24,0,.39-.08.46-.24.03-.12-.03-.22-.2-.31-.41-.16-.74-.33-1.02-.52-.27-.18-.48-.43-.63-.73-.15-.3-.26-.68-.33-1.16-.07-.47-.1-1.09-.1-1.85v-15.44c0-1.01.16-1.72.48-2.12.32-.4.84-.74,1.55-1.02.17-.09.24-.2.2-.31-.07-.16-.2-.24-.41-.24h-9.24c-.17,0-.29.06-.36.17l-7.01,10.26-6.96-10.26c-.07-.12-.19-.17-.35-.17h-.84c-2.34,2.2-4.53,4.54-6.57,6.99v12.14c0,.76-.03,1.38-.1,1.85Z"/>
      <path class="cls-2" d="M49.51,50.41h11.07c.24,0,.39-.08.46-.24.07-.16-.02-.26-.25-.31-.34-.14-.64-.28-.89-.41-.25-.14-.46-.32-.61-.54-.15-.22-.27-.48-.36-.79s-.13-.7-.13-1.16v-15.68c0-.76.03-1.38.1-1.87.07-.48.18-.87.33-1.17.15-.3.36-.54.61-.71.25-.17.58-.34.99-.5.24-.05.32-.15.25-.31-.07-.16-.22-.24-.46-.24h-11.12c-.2,0-.34.08-.41.24-.07.14,0,.24.2.31.71.28,1.23.62,1.55,1.02.32.4.48,1.11.48,2.12v15.44c0,.76-.03,1.38-.1,1.85-.07.47-.18.86-.33,1.16-.15.3-.36.54-.63.73-.27.18-.61.36-1.02.52-.17.09-.24.2-.2.31.07.16.22.24.46.24Z"/>
      <path class="cls-2" d="M96.73,49.86c-.41-.16-.74-.33-1.02-.52-.27-.18-.48-.43-.63-.73-.15-.3-.26-.68-.33-1.16-.07-.47-.1-1.09-.1-1.85v-15.44c0-1.01.16-1.72.48-2.12.32-.4.84-.74,1.55-1.02.17-.09.24-.2.2-.31-.07-.16-.2-.24-.41-.24h-9.24c-.17,0-.29.06-.36.17l-7.01,10.26-6.96-10.26c-.07-.12-.19-.17-.35-.17h-9.24c-.2,0-.34.08-.41.24-.07.14,0,.24.2.31.71.28,1.23.62,1.55,1.02.32.4.48,1.11.48,2.12v15.44c0,.76-.03,1.38-.1,1.85-.07.47-.18.86-.33,1.16-.15.3-.36.54-.64.73-.27.18-.61.36-1.02.52-.17.09-.24.2-.2.31.07.16.22.24.46.24h11.07c.3,0,.46-.1.46-.31,0-.11-.08-.21-.25-.28-.34-.11-.63-.24-.89-.38-.25-.14-.46-.32-.61-.54-.15-.22-.27-.48-.36-.79-.09-.31-.13-.7-.13-1.16v-10.57l6.85,10.29c.07.12.19.17.36.17h.15c.17,0,.29-.06.35-.17l6.85-10.29v10.57c0,.46-.04.85-.13,1.16-.09.31-.2.58-.36.79-.15.22-.36.4-.61.54-.25.14-.55.28-.89.41-.24.05-.32.15-.25.31.07.16.22.24.46.24h11.07c.24,0,.39-.08.46-.24.03-.12-.03-.22-.2-.31Z"/>
    </g>
    <path class="cls-2" d="M110.08,26.47h-11.12c-.2,0-.34.08-.41.24-.07.14,0,.24.2.31.71.28,1.23.62,1.55,1.02.32.4.48,1.11.48,2.12v15.44c0,.76-.03,1.38-.1,1.85-.07.47-.18.86-.33,1.16-.15.3-.36.54-.63.73-.27.18-.61.36-1.02.52-.17.09-.24.2-.2.31.07.16.22.24.46.24h11.07c.24,0,.39-.08.46-.24.07-.16-.02-.26-.25-.31-.34-.14-.64-.28-.89-.41-.25-.14-.46-.32-.61-.54-.15-.22-.27-.48-.36-.79-.08-.31-.13-.7-.13-1.16v-15.68c0-.76.03-1.38.1-1.87.07-.48.18-.87.33-1.17.15-.3.36-.54.61-.71.25-.17.58-.34.99-.5.24-.05.32-.15.25-.31-.07-.16-.22-.24-.46-.24Z"/>
  </g>
  <g>
    <path class="cls-1" d="M45.91,88.79c-.23-.14-.46-.14-.69,0-.92.74-1.85,1.34-2.79,1.83-.94.48-1.94.87-3,1.17-1.06.3-2.2.52-3.44.65-1.24.14-2.62.21-4.13.21l-4.54.07v-29.33c0-1.51.05-2.75.14-3.72.09-.96.24-1.74.45-2.34.21-.6.48-1.07.83-1.41s.79-.68,1.34-1c.32-.09.44-.3.34-.62-.09-.32-.3-.48-.62-.48h-15.08c-.27,0-.46.16-.55.48-.09.28,0,.48.28.62.96.55,1.66,1.23,2.1,2.03.44.8.65,2.22.65,4.23v30.78c0,1.51-.05,2.74-.14,3.68-.09.94-.24,1.71-.45,2.31-.21.6-.49,1.08-.86,1.45-.37.37-.83.71-1.38,1.03-.23.18-.32.39-.28.62.09.32.3.48.62.48l27.61-.14c.28,0,.46-.14.55-.41l3.24-11.57c.09-.28.02-.48-.21-.62Z"/>
    <path class="cls-1" d="M78.96,88.79c-.23-.14-.46-.14-.69,0-.92.74-1.85,1.34-2.79,1.83-.94.48-1.94.87-3,1.17-1.06.3-2.2.52-3.44.65-1.24.14-2.62.21-4.13.21l-4.34.07v-11.15h5.99c1.61,0,2.75.14,3.44.41.69.28,1.26.74,1.72,1.38.09.09.2.16.31.21.11.05.22.02.31-.07.28-.05.41-.23.41-.55v-9.71c0-.23-.09-.39-.28-.48-.14-.14-.32-.16-.55-.07-.37.14-.65.24-.86.31-.21.07-.45.1-.72.1h-9.78v-10.47h9.64c1.28,0,2.32.21,3.1.62.78.41,1.61,1.03,2.48,1.86.18.18.41.23.69.14.23-.09.34-.27.34-.55v-10.74c0-.18-.09-.35-.27-.48-.14-.14-.32-.16-.55-.07-.41.18-.76.3-1.03.34-.27.05-.73.07-1.38.07l-25.61-.07c-.32,0-.53.16-.62.48-.05.23.05.44.28.62.55.32,1.01.67,1.38,1.04.37.37.65.85.86,1.45.21.6.35,1.37.45,2.31.09.94.14,2.17.14,3.69v28.62c0,1.52-.05,2.75-.14,3.69-.09.94-.24,1.71-.45,2.31-.21.6-.49,1.08-.86,1.45-.37.37-.83.71-1.38,1.03-.23.19-.32.39-.28.62.09.32.3.48.62.48h26.51c.27,0,.46-.14.55-.41l4.13-11.64c.14-.28.07-.51-.21-.69Z"/>
    <path class="cls-1" d="M113.18,88.79c-.23-.14-.46-.14-.69,0-.92.74-1.85,1.34-2.79,1.83-.94.48-1.94.87-3,1.17-1.06.3-2.2.52-3.44.65-1.24.14-2.62.21-4.13.21l-4.34.07v-11.15h5.99c1.61,0,2.75.14,3.44.41.69.28,1.26.74,1.72,1.38.09.09.19.16.31.21.11.05.22.02.31-.07.28-.05.41-.23.41-.55v-9.71c0-.23-.09-.39-.28-.48-.14-.14-.32-.16-.55-.07-.37.14-.65.24-.86.31-.21.07-.45.1-.72.1h-9.78v-10.47h9.64c1.28,0,2.32.21,3.1.62.78.41,1.61,1.03,2.48,1.86.18.18.41.23.69.14.23-.09.34-.27.34-.55v-10.74c0-.18-.09-.35-.27-.48-.14-.14-.32-.16-.55-.07-.41.18-.76.3-1.03.34-.27.05-.73.07-1.38.07l-25.61-.07c-.32,0-.53.16-.62.48-.05.23.05.44.28.62.55.32,1.01.67,1.38,1.04.37.37.65.85.86,1.45.21.6.35,1.37.45,2.31.09.94.14,2.17.14,3.69v28.62c0,1.52-.05,2.75-.14,3.69-.09.94-.24,1.71-.45,2.31-.21.6-.49,1.08-.86,1.45-.37.37-.83.71-1.38,1.03-.23.19-.32.39-.28.62.09.32.3.48.62.48h23.54c1.86-1.76,3.65-3.59,5.33-5.51l2.32-6.54c.14-.28.07-.51-.21-.69Z"/>
  </g>
</svg>