<?xml version="1.0" encoding="UTF-8"?>
<svg id="Layer_1" xmlns="http://www.w3.org/2000/svg" viewBox="0 0 1024 1024">
  <defs>
    <style>
      .cls-1 {
        fill: #639;
      }

      .cls-2 {
        fill: #fff;
      }

      .cls-3 {
        fill: #9fcc3b;
      }
    </style>
  </defs>
  <path class="cls-3" d="M638.44,40.12c-168.16-12.32-338.02,56.48-460.35,171.67h6.74c1.35,0,2.3.46,2.84,1.38l55.65,82.08,56.06-82.08c.54-.92,1.49-1.38,2.85-1.38h73.93c1.63,0,2.71.65,3.25,1.93.26.93-.27,1.75-1.63,2.49-5.68,2.21-9.82,4.93-12.39,8.15-2.58,3.22-3.86,8.89-3.86,17v123.54c0,6.08.27,11.01.82,14.78.54,3.78,1.42,6.87,2.64,9.26,1.22,2.4,2.91,4.33,5.07,5.8,2.17,1.48,4.87,2.86,8.13,4.15,1.35.74,1.89,1.57,1.62,2.49-.54,1.29-1.76,1.93-3.66,1.93h-88.55c-1.9,0-3.11-.64-3.66-1.93-.54-1.29.13-2.12,2.03-2.49,2.7-1.11,5.08-2.21,7.11-3.32,2.03-1.11,3.66-2.53,4.87-4.29,1.22-1.74,2.16-3.87,2.85-6.35.67-2.49,1.01-5.57,1.01-9.26v-84.57l-54.84,82.36c-.54.92-1.49,1.39-2.84,1.39h-1.22c-1.36,0-2.3-.46-2.85-1.39l-54.84-82.36v84.57c0,3.69.33,6.77,1.02,9.26.67,2.49,1.63,4.61,2.85,6.35,1.22,1.75,2.84,3.18,4.87,4.29,2.03,1.1,4.39,2.12,7.1,3.04,1.35.55,2.03,1.29,2.03,2.21,0,1.66-1.22,2.49-3.66,2.49h-88.55c-1.89,0-3.11-.64-3.66-1.93-.27-.92.27-1.75,1.63-2.49,3.25-1.29,5.95-2.67,8.12-4.15,2.16-1.47,3.86-3.41,5.08-5.8,1.22-2.39,2.09-5.48,2.64-9.26.54-3.77.81-8.71.81-14.78v-97.15c-50.77,61.23-89.12,131.73-109.53,207.91-69.83,260.61,95.64,488.15,369.58,508.23,168.16,12.32,338.02-56.48,460.35-171.67h-188.35c-2.57,0-4.22-1.28-4.96-3.85-.36-1.83.36-3.49,2.21-4.97,4.4-2.57,8.07-5.33,11.01-8.27,2.93-2.94,5.24-6.8,6.89-11.59,1.65-4.78,2.83-10.94,3.58-18.48.73-7.55,1.1-17.38,1.1-29.52v-228.93c0-12.14-.37-21.97-1.1-29.51-.75-7.55-1.93-13.7-3.58-18.49-1.65-4.78-3.96-8.63-6.89-11.58-2.94-2.95-6.61-5.7-11.01-8.28-1.84-1.47-2.57-3.12-2.21-4.96.74-2.58,2.39-3.87,4.96-3.87l204.92.55c5.14,0,8.82-.18,11.01-.55,2.21-.36,4.96-1.28,8.26-2.75,1.83-.74,3.31-.55,4.41.55,1.46,1.11,2.2,2.4,2.2,3.87v85.92c0,2.21-.92,3.68-2.75,4.4-2.21.74-4.05.37-5.51-1.1-6.98-6.61-13.59-11.57-19.83-14.87-6.25-3.31-14.51-4.96-24.79-4.96h-77.12v83.73h78.22c2.2,0,4.13-.27,5.78-.83,1.65-.55,3.94-1.37,6.88-2.48,1.83-.73,3.31-.55,4.4.55,1.46.74,2.21,2.02,2.21,3.86v77.67c0,2.57-1.1,4.04-3.3,4.4-.74.74-1.57.92-2.48.55-.93-.36-1.75-.92-2.48-1.65-3.68-5.14-8.26-8.82-13.77-11.02-5.5-2.2-14.69-3.31-27.54-3.31h-47.92v89.24l34.7-.55c12.12,0,23.14-.55,33.05-1.65,9.92-1.1,19.09-2.83,27.54-5.23,8.44-2.38,16.43-5.51,23.96-9.36,7.53-3.86,14.96-8.72,22.31-14.6,1.83-1.1,3.67-1.1,5.51,0,2.2,1.47,2.75,3.31,1.65,5.51l-18.57,52.31c55.77-63.9,97.76-138.65,119.49-219.77,69.83-260.61-95.63-488.15-369.58-508.23ZM368.92,715.26l-25.89,92.54c-.75,2.21-2.21,3.31-4.41,3.31l-220.89,1.1c-2.57,0-4.22-1.28-4.96-3.85-.36-1.83.36-3.49,2.21-4.96,4.4-2.57,8.07-5.32,11.01-8.26,2.93-2.93,5.24-6.79,6.89-11.57,1.65-4.77,2.83-10.92,3.58-18.46.73-7.52,1.1-17.35,1.1-29.46v-246.23c0-16.15-1.74-27.45-5.23-33.88-3.5-6.42-9.09-11.84-16.8-16.25-2.21-1.1-2.94-2.75-2.21-4.96.73-2.56,2.21-3.85,4.4-3.85h120.64c2.57,0,4.22,1.29,4.96,3.85.74,2.58-.19,4.23-2.75,4.96-4.41,2.58-7.99,5.24-10.74,7.99-2.75,2.75-4.96,6.53-6.61,11.3-1.65,4.78-2.85,11.01-3.58,18.72-.74,7.72-1.11,17.63-1.11,29.75v234.66l36.36-.55c12.12,0,23.14-.55,33.05-1.65,9.92-1.1,19.09-2.83,27.54-5.23,8.44-2.38,16.43-5.51,23.96-9.36,7.53-3.86,14.96-8.72,22.31-14.6,1.83-1.1,3.67-1.1,5.51,0,1.83,1.1,2.39,2.75,1.65,4.96ZM394.02,398.89c3.25-1.29,5.96-2.67,8.13-4.15,2.16-1.47,3.86-3.41,5.08-5.8,1.22-2.39,2.1-5.48,2.64-9.26.54-3.77.82-8.71.82-14.78v-123.54c0-8.1-1.29-13.77-3.86-17-2.57-3.22-6.7-5.94-12.39-8.15-1.63-.55-2.16-1.38-1.63-2.49.54-1.28,1.63-1.93,3.25-1.93h88.96c1.89,0,3.11.65,3.66,1.93.53,1.29-.14,2.12-2.04,2.49-3.25,1.29-5.89,2.63-7.92,4.01-2.03,1.38-3.66,3.28-4.87,5.67-1.22,2.4-2.1,5.53-2.64,9.39-.55,3.87-.81,8.85-.81,14.92v125.47c0,3.69.33,6.77,1.01,9.26.68,2.49,1.63,4.61,2.85,6.35,1.22,1.75,2.85,3.18,4.87,4.29,2.03,1.1,4.4,2.21,7.11,3.32,1.89.37,2.57,1.2,2.03,2.49-.55,1.29-1.77,1.93-3.66,1.93h-88.55c-1.9,0-3.12-.64-3.66-1.93-.27-.92.27-1.75,1.62-2.49ZM633.32,715.82l-33.05,93.09c-.74,2.21-2.21,3.31-4.4,3.31h-212.08c-2.57,0-4.22-1.28-4.96-3.85-.36-1.83.36-3.49,2.21-4.97,4.4-2.57,8.07-5.33,11.01-8.27,2.93-2.94,5.24-6.8,6.89-11.59,1.65-4.78,2.83-10.94,3.58-18.48.73-7.55,1.1-17.38,1.1-29.52v-228.93c0-12.14-.37-21.97-1.1-29.51-.74-7.55-1.92-13.7-3.58-18.49-1.65-4.78-3.96-8.63-6.89-11.58-2.94-2.95-6.61-5.7-11.01-8.28-1.84-1.47-2.57-3.12-2.21-4.96.74-2.58,2.39-3.87,4.96-3.87l204.92.55c5.14,0,8.82-.18,11.01-.55,2.21-.36,4.96-1.28,8.26-2.75,1.83-.74,3.31-.55,4.41.55,1.46,1.11,2.2,2.4,2.2,3.87v85.92c0,2.21-.92,3.68-2.75,4.4-2.21.74-4.04.37-5.51-1.1-6.97-6.61-13.58-11.57-19.83-14.87-6.25-3.31-14.51-4.96-24.79-4.96h-77.12v83.73h78.22c2.2,0,4.13-.27,5.78-.83,1.65-.55,3.94-1.37,6.88-2.48,1.83-.73,3.31-.55,4.4.55,1.47.74,2.21,2.02,2.21,3.86v77.67c0,2.57-1.1,4.04-3.3,4.4-.74.74-1.56.92-2.48.55-.92-.36-1.74-.92-2.48-1.65-3.68-5.14-8.26-8.82-13.77-11.02-5.5-2.2-14.69-3.31-27.54-3.31h-47.92v89.24l34.7-.55c12.12,0,23.14-.55,33.05-1.65,9.92-1.1,19.1-2.83,27.54-5.23,8.44-2.38,16.43-5.51,23.96-9.36,7.53-3.86,14.96-8.72,22.31-14.6,1.83-1.1,3.67-1.1,5.51,0,2.21,1.47,2.75,3.31,1.65,5.51ZM771.79,403.31h-88.55c-1.89,0-3.11-.64-3.66-1.93-.54-1.29.13-2.12,2.03-2.49,2.71-1.11,5.08-2.21,7.11-3.32,2.03-1.11,3.66-2.53,4.87-4.29,1.22-1.74,2.16-3.87,2.85-6.35.67-2.49,1.01-5.57,1.01-9.26v-84.57l-54.84,82.36c-.54.92-1.49,1.39-2.84,1.39h-1.22c-1.36,0-2.3-.46-2.85-1.39l-54.84-82.36v84.57c0,3.69.33,6.77,1.02,9.26.67,2.49,1.63,4.61,2.85,6.35,1.22,1.75,2.84,3.18,4.87,4.29,2.03,1.1,4.39,2.12,7.1,3.04,1.35.55,2.03,1.29,2.03,2.21,0,1.66-1.22,2.49-3.66,2.49h-88.55c-1.89,0-3.11-.64-3.66-1.93-.27-.92.27-1.75,1.63-2.49,3.25-1.29,5.95-2.67,8.12-4.15,2.16-1.47,3.86-3.41,5.08-5.8,1.22-2.39,2.09-5.48,2.64-9.26.54-3.77.81-8.71.81-14.78v-123.54c0-8.1-1.29-13.77-3.86-17-2.58-3.22-6.7-5.94-12.39-8.15-1.63-.55-2.17-1.38-1.63-2.49.54-1.28,1.63-1.93,3.25-1.93h73.93c1.35,0,2.3.46,2.84,1.38l55.65,82.08,56.06-82.08c.54-.92,1.49-1.38,2.85-1.38h73.93c1.63,0,2.7.65,3.25,1.93.26.93-.27,1.75-1.63,2.49-5.68,2.21-9.82,4.93-12.39,8.15-2.58,3.22-3.86,8.89-3.86,17v123.54c0,6.08.27,11.01.82,14.78.54,3.78,1.42,6.87,2.64,9.26,1.22,2.4,2.91,4.33,5.08,5.8,2.17,1.48,4.87,2.86,8.13,4.15,1.35.74,1.89,1.57,1.62,2.49-.54,1.29-1.76,1.93-3.66,1.93ZM882.27,216.21c-3.25,1.29-5.89,2.63-7.92,4.01-2.03,1.38-3.66,3.28-4.87,5.67-1.22,2.4-2.1,5.53-2.64,9.39-.55,3.87-.81,8.85-.81,14.92v125.47c0,3.69.33,6.77,1.01,9.26.68,2.49,1.63,4.61,2.85,6.35,1.22,1.75,2.85,3.18,4.87,4.29,2.03,1.1,4.4,2.21,7.11,3.32,1.89.37,2.57,1.2,2.03,2.49-.55,1.29-1.77,1.93-3.66,1.93h-88.55c-1.9,0-3.12-.64-3.66-1.93-.27-.92.27-1.75,1.62-2.49,3.25-1.29,5.96-2.67,8.13-4.15,2.16-1.47,3.86-3.41,5.08-5.8,1.22-2.39,2.1-5.48,2.64-9.26.54-3.77.82-8.71.82-14.78v-123.54c0-8.1-1.29-13.77-3.86-17-2.57-3.22-6.7-5.94-12.39-8.15-1.63-.55-2.16-1.38-1.63-2.49.54-1.28,1.63-1.93,3.25-1.93h88.96c1.89,0,3.11.65,3.66,1.93.54,1.29-.14,2.12-2.04,2.49Z"/>
  <g>
    <g>
      <path class="cls-2" d="M124.71,379.68c-.55,3.78-1.42,6.87-2.64,9.26-1.22,2.4-2.92,4.33-5.08,5.8-2.17,1.48-4.87,2.86-8.12,4.15-1.36.74-1.89,1.57-1.63,2.49.54,1.29,1.76,1.93,3.66,1.93h88.55c2.44,0,3.66-.83,3.66-2.49,0-.92-.68-1.66-2.03-2.21-2.71-.92-5.07-1.94-7.1-3.04-2.04-1.11-3.66-2.53-4.87-4.29-1.22-1.74-2.18-3.87-2.85-6.35-.68-2.49-1.02-5.57-1.02-9.26v-84.57l54.84,82.36c.54.92,1.49,1.39,2.85,1.39h1.22c1.35,0,2.3-.46,2.84-1.39l54.84-82.36v84.57c0,3.69-.34,6.77-1.01,9.26-.68,2.49-1.63,4.61-2.85,6.35-1.22,1.75-2.85,3.18-4.87,4.29-2.03,1.1-4.41,2.21-7.11,3.32-1.9.37-2.57,1.2-2.03,2.49.54,1.29,1.76,1.93,3.66,1.93h88.55c1.89,0,3.11-.64,3.66-1.93.27-.92-.27-1.75-1.62-2.49-3.25-1.29-5.96-2.67-8.13-4.15-2.17-1.47-3.86-3.41-5.07-5.8-1.22-2.39-2.1-5.48-2.64-9.26-.55-3.77-.82-8.71-.82-14.78v-123.54c0-8.1,1.29-13.77,3.86-17,2.57-3.22,6.7-5.94,12.39-8.15,1.35-.73,1.89-1.56,1.63-2.49-.55-1.28-1.63-1.93-3.25-1.93h-73.93c-1.36,0-2.3.46-2.85,1.38l-56.06,82.08-55.65-82.08c-.54-.92-1.49-1.38-2.84-1.38h-6.74c-18.7,17.61-36.27,36.3-52.57,55.95v97.15c0,6.08-.27,11.01-.81,14.78Z"/>
      <path class="cls-2" d="M396.05,403.31h88.55c1.89,0,3.11-.64,3.66-1.93.54-1.29-.14-2.12-2.03-2.49-2.71-1.11-5.08-2.21-7.11-3.32-2.03-1.11-3.66-2.53-4.87-4.29-1.22-1.74-2.17-3.87-2.85-6.35-.68-2.49-1.01-5.57-1.01-9.26v-125.47c0-6.08.26-11.05.81-14.92.54-3.87,1.42-7,2.64-9.39,1.22-2.39,2.85-4.29,4.87-5.67,2.04-1.38,4.67-2.72,7.92-4.01,1.89-.36,2.57-1.19,2.04-2.49-.55-1.28-1.77-1.93-3.66-1.93h-88.96c-1.63,0-2.71.65-3.25,1.93-.54,1.11,0,1.94,1.63,2.49,5.69,2.21,9.82,4.93,12.39,8.15,2.57,3.22,3.86,8.89,3.86,17v123.54c0,6.08-.27,11.01-.82,14.78-.54,3.78-1.42,6.87-2.64,9.26-1.22,2.4-2.91,4.33-5.08,5.8-2.17,1.48-4.87,2.86-8.13,4.15-1.35.74-1.89,1.57-1.62,2.49.54,1.29,1.75,1.93,3.66,1.93Z"/>
      <path class="cls-2" d="M773.82,398.89c-3.25-1.29-5.96-2.67-8.13-4.15-2.17-1.47-3.86-3.41-5.08-5.8-1.22-2.39-2.1-5.48-2.64-9.26-.55-3.77-.82-8.71-.82-14.78v-123.54c0-8.1,1.29-13.77,3.86-17,2.57-3.22,6.7-5.94,12.39-8.15,1.35-.73,1.89-1.56,1.63-2.49-.55-1.28-1.63-1.93-3.25-1.93h-73.93c-1.36,0-2.3.46-2.85,1.38l-56.06,82.08-55.65-82.08c-.54-.92-1.49-1.38-2.84-1.38h-73.93c-1.62,0-2.71.65-3.25,1.93-.54,1.11,0,1.94,1.63,2.49,5.69,2.21,9.81,4.93,12.39,8.15,2.57,3.22,3.86,8.89,3.86,17v123.54c0,6.08-.27,11.01-.81,14.78-.55,3.78-1.42,6.87-2.64,9.26-1.22,2.4-2.92,4.33-5.08,5.8-2.17,1.48-4.87,2.86-8.12,4.15-1.36.74-1.89,1.57-1.63,2.49.54,1.29,1.76,1.93,3.66,1.93h88.55c2.44,0,3.66-.83,3.66-2.49,0-.92-.68-1.66-2.03-2.21-2.71-.92-5.08-1.94-7.1-3.04-2.04-1.11-3.66-2.53-4.87-4.29-1.22-1.74-2.18-3.87-2.85-6.35-.68-2.49-1.02-5.57-1.02-9.26v-84.57l54.84,82.36c.54.92,1.49,1.39,2.85,1.39h1.22c1.35,0,2.3-.46,2.84-1.39l54.84-82.36v84.57c0,3.69-.34,6.77-1.01,9.26-.68,2.49-1.63,4.61-2.85,6.35-1.22,1.75-2.85,3.18-4.87,4.29-2.03,1.1-4.41,2.21-7.11,3.32-1.89.37-2.57,1.2-2.03,2.49.54,1.29,1.76,1.93,3.66,1.93h88.55c1.89,0,3.11-.64,3.66-1.93.27-.92-.27-1.75-1.62-2.49Z"/>
    </g>
    <path class="cls-2" d="M880.65,211.79h-88.96c-1.63,0-2.71.65-3.25,1.93-.54,1.11,0,1.94,1.63,2.49,5.68,2.21,9.82,4.93,12.39,8.15,2.57,3.22,3.86,8.89,3.86,17v123.54c0,6.08-.27,11.01-.82,14.78-.54,3.78-1.42,6.87-2.64,9.26-1.22,2.4-2.91,4.33-5.08,5.8-2.17,1.48-4.87,2.86-8.13,4.15-1.35.74-1.89,1.57-1.62,2.49.54,1.29,1.75,1.93,3.66,1.93h88.55c1.89,0,3.11-.64,3.66-1.93.54-1.29-.14-2.12-2.03-2.49-2.71-1.11-5.08-2.21-7.11-3.32-2.03-1.11-3.66-2.53-4.87-4.29-1.22-1.74-2.17-3.87-2.85-6.35-.68-2.49-1.01-5.57-1.01-9.26v-125.47c0-6.08.26-11.05.81-14.92.54-3.87,1.42-7,2.64-9.39,1.22-2.39,2.85-4.29,4.87-5.67,2.04-1.38,4.67-2.72,7.92-4.01,1.89-.36,2.57-1.19,2.04-2.49-.55-1.28-1.77-1.93-3.66-1.93Z"/>
  </g>
  <g>
    <path class="cls-1" d="M367.27,710.31c-1.84-1.1-3.68-1.1-5.51,0-7.35,5.88-14.78,10.74-22.31,14.6-7.53,3.85-15.52,6.98-23.96,9.36-8.45,2.4-17.63,4.13-27.54,5.23-9.92,1.11-20.93,1.65-33.05,1.65l-36.36.55v-234.66c0-12.11.36-22.03,1.11-29.75.73-7.71,1.93-13.95,3.58-18.72,1.65-4.77,3.86-8.54,6.61-11.3,2.75-2.75,6.33-5.41,10.74-7.99,2.56-.73,3.49-2.38,2.75-4.96-.74-2.56-2.39-3.85-4.96-3.85h-120.64c-2.2,0-3.68,1.29-4.4,3.85-.74,2.21,0,3.86,2.21,4.96,7.71,4.41,13.3,9.83,16.8,16.25,3.49,6.43,5.23,17.72,5.23,33.88v246.23c0,12.11-.37,21.95-1.1,29.46-.75,7.54-1.93,13.69-3.58,18.46-1.65,4.78-3.96,8.64-6.89,11.57-2.94,2.94-6.61,5.69-11.01,8.26-1.84,1.47-2.57,3.12-2.21,4.96.74,2.57,2.39,3.85,4.96,3.85l220.89-1.1c2.21,0,3.67-1.1,4.41-3.31l25.89-92.54c.74-2.21.18-3.86-1.65-4.96Z"/>
    <path class="cls-1" d="M631.67,710.31c-1.84-1.1-3.68-1.1-5.51,0-7.35,5.88-14.78,10.74-22.31,14.6-7.53,3.85-15.52,6.98-23.96,9.36-8.44,2.4-17.63,4.13-27.54,5.23-9.92,1.11-20.93,1.65-33.05,1.65l-34.7.55v-89.24h47.92c12.85,0,22.04,1.11,27.54,3.31,5.51,2.21,10.1,5.88,13.77,11.02.74.74,1.56,1.29,2.48,1.65.92.36,1.74.18,2.48-.55,2.21-.36,3.3-1.83,3.3-4.4v-77.67c0-1.83-.74-3.12-2.21-3.86-1.1-1.1-2.57-1.28-4.4-.55-2.94,1.11-5.23,1.93-6.88,2.48-1.65.55-3.59.83-5.78.83h-78.22v-83.73h77.12c10.28,0,18.54,1.65,24.79,4.96,6.25,3.31,12.86,8.26,19.83,14.87,1.47,1.47,3.31,1.84,5.51,1.1,1.83-.73,2.75-2.2,2.75-4.4v-85.92c0-1.47-.74-2.76-2.2-3.87-1.11-1.1-2.58-1.28-4.41-.55-3.3,1.47-6.06,2.39-8.26,2.75-2.2.37-5.87.55-11.01.55l-204.92-.55c-2.57,0-4.22,1.29-4.96,3.87-.36,1.83.36,3.49,2.21,4.96,4.4,2.58,8.07,5.33,11.01,8.28,2.93,2.94,5.24,6.8,6.89,11.58,1.65,4.79,2.83,10.94,3.58,18.49.73,7.54,1.1,17.37,1.1,29.51v228.93c0,12.14-.37,21.97-1.1,29.52-.74,7.54-1.92,13.7-3.58,18.48-1.65,4.79-3.96,8.64-6.89,11.59-2.94,2.94-6.61,5.7-11.01,8.27-1.84,1.48-2.57,3.13-2.21,4.97.74,2.57,2.39,3.85,4.96,3.85h212.08c2.2,0,3.67-1.1,4.4-3.31l33.05-93.09c1.1-2.21.55-4.04-1.65-5.51Z"/>
    <path class="cls-1" d="M905.44,710.31c-1.84-1.1-3.68-1.1-5.51,0-7.35,5.88-14.78,10.74-22.31,14.6-7.53,3.85-15.52,6.98-23.96,9.36-8.45,2.4-17.62,4.13-27.54,5.23-9.92,1.11-20.93,1.65-33.05,1.65l-34.7.55v-89.24h47.92c12.85,0,22.04,1.11,27.54,3.31,5.51,2.21,10.1,5.88,13.77,11.02.73.74,1.55,1.29,2.48,1.65.91.36,1.73.18,2.48-.55,2.21-.36,3.3-1.83,3.3-4.4v-77.67c0-1.83-.74-3.12-2.21-3.86-1.1-1.1-2.57-1.28-4.4-.55-2.94,1.11-5.23,1.93-6.88,2.48-1.65.55-3.59.83-5.78.83h-78.22v-83.73h77.12c10.28,0,18.54,1.65,24.79,4.96,6.24,3.31,12.85,8.26,19.83,14.87,1.46,1.47,3.31,1.84,5.51,1.1,1.83-.73,2.75-2.2,2.75-4.4v-85.92c0-1.47-.74-2.76-2.2-3.87-1.11-1.1-2.58-1.28-4.41-.55-3.31,1.47-6.06,2.39-8.26,2.75-2.2.37-5.88.55-11.01.55l-204.92-.55c-2.57,0-4.22,1.29-4.96,3.87-.36,1.83.36,3.49,2.21,4.96,4.4,2.58,8.07,5.33,11.01,8.28,2.93,2.94,5.24,6.8,6.89,11.58,1.65,4.79,2.83,10.94,3.58,18.49.73,7.54,1.1,17.37,1.1,29.51v228.93c0,12.14-.37,21.97-1.1,29.52-.75,7.54-1.93,13.7-3.58,18.48-1.65,4.79-3.96,8.64-6.89,11.59-2.94,2.94-6.61,5.7-11.01,8.27-1.84,1.48-2.57,3.13-2.21,4.97.74,2.57,2.39,3.85,4.96,3.85h188.35c14.92-14.05,29.2-28.72,42.61-44.09l18.57-52.31c1.1-2.21.55-4.04-1.65-5.51Z"/>
  </g>
</svg>