<?xml version="1.0" encoding="UTF-8"?>
<svg id="Layer_1" xmlns="http://www.w3.org/2000/svg" viewBox="0 0 512 512">
  <defs>
    <style>
      .cls-1 {
        fill: #fff;
      }
    </style>
  </defs>
  <g>
    <path class="cls-1" d="M4.15,373.52v-47.52h20.28c2.28,0,4.36.46,6.26,1.37,1.9.92,3.54,2.14,4.92,3.68,1.38,1.54,2.45,3.27,3.21,5.19s1.14,3.88,1.14,5.89c0,2.72-.64,5.31-1.91,7.76-1.27,2.46-3.03,4.45-5.29,5.99-2.25,1.54-4.92,2.31-8,2.31h-9.64v15.33H4.15ZM15.12,348.62h8.97c.85,0,1.63-.24,2.34-.73.71-.49,1.29-1.23,1.74-2.21.45-.98.67-2.19.67-3.61s-.26-2.69-.77-3.65c-.51-.96-1.16-1.66-1.94-2.11-.78-.45-1.6-.67-2.44-.67h-8.57v12.98Z"/>
    <path class="cls-1" d="M77.23,363.88v9.64h-33.4v-47.52h32.79v9.64h-21.82v9.24h18.74v8.9h-18.74v10.11h22.42Z"/>
    <path class="cls-1" d="M101.93,373.85c-3.57,0-6.79-.68-9.67-2.04-2.88-1.36-5.35-3.19-7.43-5.49-2.07-2.3-3.67-4.89-4.79-7.76-1.12-2.88-1.67-5.86-1.67-8.93s.59-6.18,1.77-9.04c1.18-2.85,2.83-5.41,4.95-7.66,2.12-2.25,4.63-4.03,7.53-5.32,2.9-1.29,6.07-1.94,9.5-1.94s6.73.68,9.6,2.04c2.88,1.36,5.35,3.2,7.43,5.52,2.07,2.32,3.67,4.92,4.78,7.8,1.12,2.88,1.67,5.81,1.67,8.8,0,3.17-.58,6.18-1.74,9.04-1.16,2.85-2.81,5.41-4.95,7.66-2.14,2.25-4.65,4.04-7.53,5.35-2.88,1.32-6.04,1.98-9.47,1.98ZM89.55,349.76c0,1.83.27,3.6.8,5.32.54,1.72,1.33,3.25,2.38,4.58,1.05,1.34,2.35,2.41,3.92,3.21,1.56.8,3.35,1.21,5.35,1.21s3.92-.41,5.49-1.24c1.56-.82,2.85-1.93,3.88-3.31,1.03-1.38,1.8-2.93,2.31-4.65.51-1.72.77-3.47.77-5.26s-.27-3.59-.8-5.29c-.54-1.69-1.34-3.22-2.41-4.58-1.07-1.36-2.39-2.42-3.95-3.18-1.56-.76-3.32-1.14-5.29-1.14-2.1,0-3.92.4-5.45,1.2-1.54.8-2.83,1.89-3.88,3.25s-1.83,2.9-2.34,4.62c-.51,1.72-.77,3.47-.77,5.25Z"/>
    <path class="cls-1" d="M129.97,373.52v-47.52h20.28c2.28,0,4.36.46,6.26,1.37,1.9.92,3.54,2.14,4.92,3.68,1.38,1.54,2.45,3.27,3.21,5.19s1.14,3.88,1.14,5.89c0,2.72-.64,5.31-1.91,7.76-1.27,2.46-3.03,4.45-5.28,5.99-2.25,1.54-4.92,2.31-8,2.31h-9.64v15.33h-10.98ZM140.95,348.62h8.97c.85,0,1.63-.24,2.34-.73.71-.49,1.29-1.23,1.74-2.21.45-.98.67-2.19.67-3.61s-.26-2.69-.77-3.65c-.51-.96-1.16-1.66-1.94-2.11-.78-.45-1.6-.67-2.44-.67h-8.57v12.98Z"/>
    <path class="cls-1" d="M169.66,373.52v-47.52h10.98v37.88h23.03v9.64h-34Z"/>
    <path class="cls-1" d="M240.2,363.88v9.64h-33.4v-47.52h32.79v9.64h-21.82v9.24h18.74v8.9h-18.74v10.11h22.42Z"/>
    <path class="cls-1" d="M244.5,342.93l1.61-8.5h-3.01v-9.77h10.91v10.04l-2.54,8.23h-6.96Z"/>
    <path class="cls-1" d="M287.54,339.99c-.13-.22-.6-.57-1.4-1.04-.81-.47-1.81-.97-3.01-1.5-1.21-.54-2.52-1-3.95-1.41-1.43-.4-2.85-.6-4.28-.6-1.87,0-3.32.32-4.35.96-1.03.64-1.54,1.63-1.54,2.96,0,1.06.39,1.91,1.17,2.52.78.62,1.91,1.16,3.38,1.63,1.47.47,3.28,1.01,5.42,1.63,3.03.8,5.67,1.76,7.9,2.89,2.23,1.13,3.94,2.58,5.12,4.35,1.18,1.77,1.77,4.12,1.77,7.05,0,2.66-.49,4.91-1.47,6.75-.98,1.84-2.31,3.32-3.98,4.45-1.67,1.13-3.58,1.95-5.72,2.46-2.14.51-4.35.77-6.63.77s-4.7-.23-7.13-.7c-2.43-.47-4.76-1.14-7-2.01-2.23-.87-4.28-1.93-6.16-3.18l4.82-9.57c.18.22.76.64,1.74,1.24.98.6,2.2,1.23,3.65,1.87s3.07,1.21,4.85,1.71c1.78.49,3.59.74,5.42.74,1.96,0,3.43-.31,4.39-.92.96-.61,1.44-1.46,1.44-2.56,0-1.2-.5-2.13-1.51-2.79s-2.36-1.26-4.08-1.8c-1.72-.53-3.69-1.13-5.92-1.8-2.9-.89-5.3-1.89-7.19-2.99-1.9-1.11-3.3-2.46-4.22-4.06-.91-1.6-1.37-3.59-1.37-5.99,0-3.33.79-6.13,2.37-8.42,1.58-2.28,3.72-4.02,6.39-5.19,2.68-1.18,5.6-1.76,8.77-1.76,2.23,0,4.38.27,6.46.8s4.02,1.21,5.82,2.01c1.81.8,3.42,1.61,4.85,2.41l-4.82,9.1Z"/>
    <path class="cls-1" d="M309.53,373.52v-47.52h20.28c2.28,0,4.36.46,6.26,1.37,1.89.92,3.54,2.14,4.92,3.68,1.38,1.54,2.46,3.27,3.21,5.19.76,1.92,1.14,3.88,1.14,5.89,0,2.72-.63,5.31-1.91,7.76-1.27,2.46-3.03,4.45-5.29,5.99-2.25,1.54-4.92,2.31-8,2.31h-9.64v15.33h-10.98ZM320.51,348.62h8.97c.85,0,1.63-.24,2.34-.73s1.29-1.23,1.74-2.21c.45-.98.67-2.19.67-3.61s-.26-2.69-.77-3.65c-.51-.96-1.16-1.66-1.94-2.11-.78-.45-1.59-.67-2.44-.67h-8.56v12.98Z"/>
    <path class="cls-1" d="M357.72,326h11.85l16.33,47.52h-11.24l-3.22-10.64h-15.64l-3.22,10.64h-11.24l16.4-47.52ZM369.14,355.31l-5.53-18.27-5.53,18.27h11.06Z"/>
    <path class="cls-1" d="M388.57,373.52v-47.52h21.42c2.23,0,4.3.46,6.19,1.37,1.89.92,3.53,2.14,4.92,3.68,1.38,1.54,2.47,3.27,3.25,5.19.78,1.92,1.17,3.86,1.17,5.82s-.31,3.83-.93,5.59c-.63,1.76-1.52,3.35-2.68,4.75-1.16,1.41-2.54,2.55-4.15,3.45l10.44,17.67h-12.12l-9.1-15.33h-7.43v15.33h-10.98ZM399.55,348.62h10.04c.89,0,1.68-.28,2.37-.84.69-.56,1.26-1.33,1.71-2.31.44-.98.67-2.12.67-3.41s-.26-2.42-.77-3.38c-.51-.96-1.15-1.71-1.91-2.24-.76-.54-1.56-.8-2.41-.8h-9.7v12.98Z"/>
    <path class="cls-1" d="M467.02,335.64h-14.46v37.88h-10.98v-37.88h-14.52v-9.64h39.96v9.64Z"/>
    <path class="cls-1" d="M477.72,326l10.24,21.02,10.37-21.02h11.98l-16.93,31.32v16.2h-10.91v-16.33l-16.66-31.19h11.91Z"/>
    <path class="cls-1" d="M13.38,432.41c-2.79,0-5.1-.61-6.93-1.83-1.83-1.22-3.2-2.87-4.1-4.97-.9-2.1-1.36-4.45-1.36-7.06s.44-5.26,1.32-7.7c.88-2.43,2.13-4.59,3.73-6.48,1.61-1.88,3.51-3.38,5.71-4.47,2.2-1.09,4.61-1.64,7.25-1.64,2.79,0,5.1.61,6.93,1.84,1.83,1.23,3.2,2.9,4.1,5,.9,2.11,1.36,4.47,1.36,7.08s-.44,5.23-1.32,7.65c-.88,2.42-2.12,4.58-3.73,6.48-1.61,1.89-3.51,3.39-5.71,4.47s-4.61,1.62-7.25,1.62ZM14.25,427.05c2.23,0,4.16-.65,5.79-1.94,1.63-1.29,2.89-3.03,3.78-5.2.89-2.18,1.34-4.59,1.34-7.25,0-3.01-.59-5.27-1.77-6.78-1.18-1.51-2.93-2.26-5.25-2.26s-4.16.64-5.79,1.94c-1.63,1.29-2.89,3.03-3.78,5.2-.89,2.18-1.34,4.59-1.34,7.25,0,2.97.59,5.21,1.76,6.74,1.17,1.53,2.93,2.29,5.27,2.29Z"/>
    <path class="cls-1" d="M41.16,390.65c.31-1.74.82-3.3,1.52-4.67.7-1.37,1.71-2.45,3.03-3.24,1.32-.79,3.03-1.19,5.15-1.19,1.32,0,2.43.12,3.33.35s1.49.41,1.76.52l-1.67,5.09c-.6-.25-1.19-.41-1.76-.48-.57-.08-1.08-.12-1.52-.12-.98,0-1.74.25-2.26.74-.52.49-.94,1.32-1.24,2.49-.3,1.17-.63,2.77-.99,4.8l-6.49,36.81h-6.09l7.23-41.09ZM34.06,403.63l1.47-4.69h17.8l-.87,4.69h-18.41Z"/>
    <path class="cls-1" d="M63.31,407.51c0-2.9.54-5.75,1.61-8.54,1.07-2.79,2.63-5.32,4.69-7.6,2.05-2.28,4.55-4.09,7.5-5.45,2.94-1.36,6.29-2.04,10.04-2.04,4.46,0,8.33.96,11.61,2.88,3.28,1.92,5.72,4.42,7.33,7.5l-8.43,5.89c-.71-1.7-1.66-3.01-2.84-3.95-1.18-.93-2.48-1.59-3.88-1.97-1.41-.38-2.76-.57-4.05-.57-2.1,0-3.93.41-5.49,1.24-1.56.83-2.85,1.93-3.88,3.31-1.03,1.39-1.79,2.92-2.28,4.62-.49,1.7-.74,3.39-.74,5.09,0,1.88.29,3.68.87,5.42.58,1.74,1.42,3.28,2.51,4.62,1.09,1.34,2.42,2.4,3.98,3.18,1.56.78,3.28,1.17,5.15,1.17,1.34,0,2.7-.22,4.08-.67,1.38-.44,2.67-1.15,3.85-2.11,1.18-.96,2.09-2.22,2.71-3.78l8.97,5.29c-.94,2.32-2.48,4.31-4.62,5.96-2.14,1.65-4.56,2.91-7.26,3.78-2.7.87-5.37,1.3-8,1.3-3.44,0-6.59-.7-9.47-2.11-2.88-1.4-5.35-3.28-7.43-5.62-2.07-2.34-3.68-4.98-4.82-7.9-1.14-2.92-1.71-5.9-1.71-8.93Z"/>
    <path class="cls-1" d="M121.34,384.22h11.85l16.33,47.52h-11.24l-3.22-10.64h-15.64l-3.22,10.64h-11.24l16.4-47.52ZM132.76,413.53l-5.53-18.27-5.53,18.27h11.06Z"/>
    <path class="cls-1" d="M163.17,404.56v27.17h-10.98v-47.52h8.7l22.02,27.97v-27.97h10.98v47.52h-8.97l-21.75-27.17Z"/>
    <path class="cls-1" d="M212.96,384.22h11.85l16.33,47.52h-11.24l-3.22-10.64h-15.64l-3.22,10.64h-11.24l16.4-47.52ZM224.38,413.53l-5.53-18.27-5.53,18.27h11.06Z"/>
    <path class="cls-1" d="M243.81,431.74v-47.52h17.74c5.22,0,9.58,1.06,13.08,3.18,3.5,2.12,6.15,4.98,7.93,8.56,1.78,3.6,2.68,7.57,2.68,11.95,0,4.82-.98,9.02-2.95,12.58-1.96,3.57-4.72,6.34-8.26,8.3-3.55,1.96-7.71,2.95-12.48,2.95h-17.74ZM274.06,407.91c0-2.76-.49-5.21-1.47-7.33-.98-2.12-2.41-3.77-4.28-4.95-1.87-1.18-4.13-1.77-6.76-1.77h-6.76v28.24h6.76c2.68,0,4.94-.61,6.79-1.84,1.85-1.23,3.27-2.92,4.25-5.09.98-2.16,1.47-4.58,1.47-7.26Z"/>
    <path class="cls-1" d="M299.83,384.22h11.85l16.33,47.52h-11.24l-3.22-10.64h-15.64l-3.22,10.64h-11.24l16.4-47.52ZM311.25,413.53l-5.53-18.27-5.53,18.27h11.06Z"/>
  </g>
  <g id="PPC">
    <path class="cls-1" d="M191.79,162.2c-.47-8.96-2.45-17.74-5.94-26.61-3.11-7.74-7.17-14.91-12.17-21.42-1.42-1.89-2.93-3.77-4.53-5.57-7.17-7.93-15.57-14.34-25.38-19.16-9.91-4.81-20.57-7.27-32.18-7.27H4.01v223.82h49.64v-56.24h59.73c11.61,0,22.27-2.36,31.99-7.08,2.55-1.23,4.91-2.55,7.26-4.06,6.61-4.06,12.46-8.96,17.55-14.72,6.89-7.83,12.17-16.8,15.95-26.89v-.19c3.77-9.91,5.76-20.29,5.76-30.86,0-1.32,0-2.55-.09-3.77ZM141.24,181.47c-2.5.53-5.42,1.54-6.02,3.62-.75,2.57,2.58,4.82,1.88,6.63-.52,1.35-3.27,2.37-12.59,1.24-15.93-3.35-2.51,7.58-8.57,12.94-5.89.35-11.02-5.08-16.2-7.62-9.97-10.42-1.91,15.2-5.72,20.45-.68,4.2-6.68,7.38-7.53,10.97-4.2-.74-1.62-2.39-2.14-6.19,1.36-3.29,4.03-2.45,5.43-5.61,2.8-6.34,3.9-16.62,3.11-23.56-1.71,1.27-3.44,2.61-5.2,3.96-4.25,3.23-8.7,6.46-13.56,8.6-5.05-.24-1.15-6.18-.85-9.03-4.23-1.34-9.6.44-14.03-.42-6.4-.72-3.52-5.3-7.16-8.01-2.49-3.04-14.26-6.27-6.51-9.6,17.52-3.3,5.17-12.66.04-21.73-.35-.97-.56-2.41-.03-2.92,14.65.92-6.25-16.26,1.94-17.21,20.33,11.61,3.95-11.07,24.16,6.4.86.16,2.16.26,3.17-.45,4.3-3.03-1.01-17.66,1.58-18.66.6-.23,1.11.45,3.13.35.75-.04,1.64-.09,2.57-.59,1.37-.74,2-2,2.26-2.62.7-.59,1.81-1.69,2.56-3.39.41-.93.61-1.78.71-2.45,1.54-5.56,2.83-6.08,3.41-6.09,2.12-.02,5.1,6.85,5.21,9.81.01.37.01,1.52.73,2.56.45.66,1.07,1.11,1.38,1.33.05.04.86.61,1.73.92,2.11.74,3.47-.67,4.5-.06,1.11.66,1.8,2.69,1.12,8.03-.62,4.51-4.57,15.67,3.41,12.11,6-1.45,10.87-14.21,14.51-9.75,1.7,1.5,4.08.51,5.42-.34,5.25-2.77,14.85-5.11,9.08,3.47-.21,5.59,5.67.47-1.41,8.62-1.25,3.53,4.09,3.22,3.68,5.58-3.94,4.33-15.72,14.19-6.17,17.52,3.62.3,6.22,3.11,9.57,3.89,1.68.06,2.64.4,2.9,1.04.47,1.14-1.37,3.23-5.51,6.26Z"/>
    <path id="Second_P" class="cls-1" d="M352.56,135.6c-3.31-8.23-7.65-15.78-13.13-22.57-1.04-1.49-2.25-3-3.59-4.42-7.17-7.93-15.55-14.34-25.37-19.16-9.9-4.82-20.58-7.27-32.17-7.27h-106.92v7.55c3.16,2.68,6.16,5.58,8.99,8.71,1.79,2.02,3.53,4.17,5.4,6.64,5.71,7.4,10.48,15.81,14.11,24.87,4.17,10.55,6.44,20.75,7.02,31.28.13,1.74.13,3.33.13,4.75,0,11.36-1.94,22.62-5.76,33.53v.08l-.96,2.75c-4.44,11.84-10.76,22.47-18.76,31.58-3.13,3.56-6.54,6.84-10.17,9.85v62.24h49.08v-56.23h59.64c11.59,0,22.27-2.37,31.96-7.09,9.64-4.7,17.95-11.03,24.82-18.76.86-1.04,1.79-2.07,2.55-3.13,5.68-7.07,10.1-15,13.41-23.76,3.79-10.02,5.76-20.4,5.76-31.05s-2.07-20.27-6.03-30.37ZM299.82,195.79c-6.06,7.37-13.61,11.03-22.57,11.03h-56.78v-81.7h54.61c4.27,0,8.51.93,12.65,2.73,4.17,1.69,7.75,4.44,10.86,7.93,3.03,3.59,5.48,7.93,7.45,13.03,1.89,5.1,2.83,10.76,2.83,17.17,0,12.55-3,22.55-9.04,29.82Z"/>
    <path id="C" class="cls-1" d="M474.84,236.27c-2.53,6.22-5.93,11.47-10.21,15.84-4.28,4.37-8.94,7.97-13.9,10.69-5.05,2.82-10.3,4.86-15.84,6.12-5.54,1.26-10.89,1.94-16.04,1.94-9.82,0-18.76-2.14-27.02-6.42-8.16-4.28-15.26-9.91-21.09-17.01-5.83-7-10.4-15.16-13.61-24.4-.19-.58-.39-1.26-.58-1.85-2.92,4.86-6.22,9.43-10.01,13.71-6.42,7.29-13.9,13.51-22.26,18.47,4.08,7,8.84,13.51,14.19,19.54,9.62,10.98,21.19,19.93,34.7,26.73,13.41,6.8,28.19,10.21,44.42,10.21,9.14,0,18.57-1.17,28.19-3.5,9.53-2.33,18.56-5.73,27.02-10.21,8.36-4.47,15.94-10.01,22.65-16.52,6.71-6.51,11.86-14,15.55-22.55l-36.16-20.8ZM473.68,93.3c-15.16-9.14-33.24-13.71-54.14-13.71-17.69,0-33.53,3.3-47.34,9.91-8.16,3.89-15.55,8.46-22.16,13.71,6.22,7.97,11.28,16.72,15.06,26.24,1.65,4.28,3.11,8.46,4.18,12.73,5.35-6.9,11.96-12.44,20.02-16.91,8.17-4.47,17.79-6.71,28.96-6.71,5.05,0,10.3.58,15.65,1.85,5.35,1.17,10.4,3.01,15.36,5.54,4.86,2.53,9.43,6.03,13.71,10.4,4.28,4.37,7.87,9.72,10.89,16.14l33.92-23.33c-7.48-14.68-18.86-26.63-34.12-35.87Z"/>
  </g>
</svg>